<svg width="28" height="20" viewBox="0 0 28 20" fill="none" xmlns="http://www.w3.org/2000/svg">
<path fill-rule="evenodd" clip-rule="evenodd" d="M24.7182 7.75526H2.2082C1.82717 7.75526 1.17559 7.69704 1.07406 6.82362L0.552923 2.34009C0.525851 2.10718 0.540478 1.7287 1.69595 1.58313C1.72575 1.57938 1.7579 1.57531 1.79237 1.57096C3.09433 1.40644 7.68635 0.826172 12.5405 0.826172C16.1833 0.826172 20.3431 1.23076 22.5803 1.44836C23.4032 1.52839 23.966 1.58313 24.1473 1.58313C24.8214 1.58313 25.1653 2.01984 25.2499 2.74768L25.7236 6.82362C25.7724 7.24286 25.8026 7.75526 24.7182 7.75526ZM2.4503 6.29968L2.06791 3.00982C3.53113 2.73809 7.75306 2.19463 12.935 2.19463C18.117 2.19463 22.3653 2.71868 23.8417 2.98071L24.2275 6.29968H2.4503Z" fill="#54A2CB"/>
<path d="M3.34304 16.7514L2.25 7.34766H3.68618L4.77923 16.7514C4.87059 17.5375 5.62255 18.2071 6.58978 18.2071H23.1791C23.9998 18.2071 24.4428 17.4793 24.3277 16.4894L23.2652 7.34766H24.7013L25.7639 16.4894C25.9805 18.3527 24.6605 19.6046 23.3416 19.6046H6.75221C5.16948 19.6046 3.53255 18.3818 3.34304 16.7514Z" fill="#54A2CB"/>
<rect width="6.62402" height="1.46549" transform="matrix(1 0 0.115457 0.993312 10.5059 10.2881)" fill="#54A2CB"/>
</svg>
