<svg width="27" height="28" viewBox="0 0 27 28" fill="none" xmlns="http://www.w3.org/2000/svg">
<path fill-rule="evenodd" clip-rule="evenodd" d="M13.704 0.124023C9.89978 0.124023 7.84807 0.295 5.02696 0.636952C2.20586 0.978904 0.496094 2.85964 0.496094 5.46703V22.7356C0.496094 24.6591 1.43646 27.1383 5.41166 27.523C8.80618 27.8515 10.6734 27.9306 13.0628 27.9467C14.9863 27.948 19.4659 27.882 21.9963 27.6084C25.1594 27.2665 26.9119 25.5567 26.9119 23.0348V5.72349C26.9119 3.20159 25.7151 1.14988 22.3383 0.636952C19.6369 0.226609 15.4565 0.124023 13.704 0.124023ZM13.7035 1.83364C10.3671 1.83364 8.14176 1.98334 5.66759 2.28274C3.19342 2.58215 2.11983 3.56861 2.11983 5.85158V21.9661C2.11983 23.6502 2.56595 25.5615 6.05229 25.8983C8.84314 26.168 10.7896 26.18 12.7486 26.192C12.8793 26.1928 13.0101 26.1936 13.1412 26.1945C13.2724 26.1946 13.4198 26.1949 13.581 26.1951C15.4921 26.1983 19.3508 26.2047 21.3974 25.9838C24.1715 25.6844 25.2871 24.6871 25.2871 22.479V5.85158C25.2871 3.64346 24.2375 2.73185 21.2759 2.28274C18.9067 1.92346 15.2405 1.83364 13.7035 1.83364Z" fill="#54A2CB"/>
<rect x="8.87402" y="12.947" width="9.66015" height="2.1372" fill="#54A2CB"/>
<rect x="8.87402" y="9.35645" width="9.66015" height="2.1372" fill="#54A2CB"/>
<rect x="8.87402" y="16.8794" width="9.66015" height="2.1372" fill="#54A2CB"/>
</svg>
