<svg width="27" height="26" viewBox="0 0 27 26" fill="none" xmlns="http://www.w3.org/2000/svg">
<path fill-rule="evenodd" clip-rule="evenodd" d="M12.026 0.234863C8.60619 0.234863 6.77704 0.387806 4.27145 0.693692C1.76587 0.999577 0.396221 2.68195 0.628201 5.01433L2.16459 20.4616C2.33573 22.1822 3.40163 24.3998 7.00933 24.744C10.09 25.0378 11.7756 25.1086 13.925 25.123C15.6542 25.1241 19.6752 25.0651 21.9256 24.8204C24.7386 24.5145 26.1619 22.9851 25.9375 20.7292L24.3973 5.24374C24.1729 2.98783 22.9145 1.15252 19.8333 0.693692C17.3684 0.326629 13.6014 0.234863 12.026 0.234863ZM12.1789 1.76423C9.17965 1.76423 7.19254 1.89815 4.99504 2.16597C2.79755 2.4338 1.92023 3.31621 2.12334 5.35839L3.55705 19.7733C3.70689 21.2798 4.27797 22.9895 7.44195 23.2908C9.97474 23.532 11.7256 23.5427 13.4877 23.5535C13.6052 23.5542 13.7229 23.5549 13.8408 23.5557C13.9588 23.5558 14.0913 23.556 14.2363 23.5562C15.9546 23.5591 19.4238 23.5648 21.2439 23.3672C23.711 23.0994 24.6252 22.2073 24.4287 20.2321L22.9493 5.35839C22.7529 3.38317 21.7282 2.56771 19.026 2.16597C16.8643 1.84458 13.5605 1.76423 12.1789 1.76423Z" fill="#54A2CB"/>
<path d="M13.0067 14.3439L10.1813 11.8203L9.17725 12.9292C10.1497 13.8213 12.1953 15.6898 12.5977 16.0262C13.1006 16.4468 13.4734 16.3321 13.7504 16.0262C13.972 15.7815 17.2333 11.8968 18.8363 9.985L17.5809 8.95264L13.0067 14.3439Z" fill="#54A2CB"/>
</svg>
