<svg width="29" height="25" viewBox="0 0 29 25" fill="none" xmlns="http://www.w3.org/2000/svg">
<path fill-rule="evenodd" clip-rule="evenodd" d="M8.56818 0.82373H7.10192L7.56555 4.30776C5.78524 4.43631 4.34144 4.59272 3.4752 4.68656L3.47513 4.68657C3.19604 4.7168 2.9769 4.74054 2.82579 4.75476C1.77261 4.85386 1.12371 4.98599 1.27317 6.10911L3.20292 20.6106C3.38315 21.9649 4.58876 24.0129 8.26065 24.3102C11.9325 24.6075 13.6365 24.6406 15.6026 24.6406C17.5687 24.6406 21.3677 24.6406 24.0475 24.2442C26.7273 23.8478 27.787 22.2952 27.4925 20.082C27.2569 18.3115 26.1442 10.1171 25.6173 6.24124L25.6082 6.17217C25.5135 5.45343 25.4558 5.01497 24.4374 4.88689C23.7967 4.80631 21.5804 4.52915 18.83 4.32516L18.3641 0.82373H16.8978L17.3507 4.2267C15.998 4.14738 14.5689 4.0941 13.1683 4.0941C11.7118 4.0941 10.3054 4.14308 9.01943 4.21466L8.56818 0.82373ZM17.8121 7.69457L17.5406 5.65399C16.1535 5.57015 14.7052 5.51433 13.3246 5.51433C11.9658 5.51433 10.5558 5.5684 9.21044 5.65004L9.48251 7.69457H8.01625L7.75748 5.75003C5.58708 5.91649 3.72371 6.13402 2.72868 6.27409L3.28537 10.5354L24.6898 10.5354L24.1228 6.27409C23.1007 6.13541 21.2072 5.9208 19.0203 5.755L19.2784 7.69457H17.8121ZM24.8832 11.9889L3.47524 11.9889L4.51522 19.9497C4.71743 21.4692 5.41581 22.4602 7.77232 22.8896C9.90405 23.2781 15.3906 23.2611 17.5773 23.2543C17.8079 23.2536 18.0017 23.253 18.1511 23.253C19.2369 23.253 20.2481 23.1736 21.5694 23.0699C22.1541 23.024 22.7995 22.9733 23.539 22.9227C25.1166 22.7575 26.2064 21.9317 25.969 20.1479L24.8832 11.9889Z" fill="#54A2CB"/>
</svg>
